<?xml version="1.0" encoding="UTF-8" standalone="no"?>
<svg
   viewBox="0 0 650 650"
   version="1.1"
   id="svg1"
   xml:space="preserve"
   width="650"
   height="650"
   xmlns="http://www.w3.org/2000/svg"
   xmlns:svg="http://www.w3.org/2000/svg"><defs
     id="defs1" /><path
     d="m 177,370 c -17.7,0 -32,14.3 -32,32 0,17.7 14.3,32 32,32 17.7,0 32,-14.3 32,-32 0,-17.7 -14.3,-32 -32,-32 z"
     id="path1"
     fill="#44EAFC" /><path
     d="m 320,372 c -17.7,0 -32,14.3 -32,32 0,17.7 14.3,32 32,32 17.7,0 32,-14.3 32,-32 0,-17.7 -14.3,-32 -32,-32 z"
     id="path2"
     fill="#6AD83F" /><path
     d="m 463,370 c -17.7,0 -32,14.3 -32,32 0,17.7 14.3,32 32,32 17.7,0 32,-14.3 32,-32 0,-17.7 -14.3,-32 -32,-32 z"
     fill="#44EAFC"
     style="display:inline"
     id="path3" /><path
     d="M 163.21429,100 C 108.97321,100 65,143.97321 65,198.21429 V 501.78571 C 65,556.02679 108.97321,600 163.21429,600 H 466.78571 C 521.02679,600 565,556.02679 565,501.78571 v -125 C 565,361.94196 553.05804,350 538.21429,350 c -14.84375,0 -26.78572,11.94196 -26.78572,26.78571 v 125 c 0,24.66518 -19.97768,44.64286 -44.64286,44.64286 H 163.21429 c -24.66518,0 -44.64286,-19.97768 -44.64286,-44.64286 V 198.21429 c 0,-24.66518 19.97768,-44.64286 44.64286,-44.64286 h 125 C 303.05804,153.57143 315,141.62946 315,126.78571 315,111.94196 303.05804,100 288.21429,100 Z"
     style="display:inline;stroke-width:1.116;stroke-dasharray:none"
     id="path4" /><path
     d="m 557.58442,5 c -16.9656,0 -33.93155,6.469552 -46.86867,19.410096 L 329.04278,206.03931 c -8.01089,8.01301 -13.8108,17.86772 -16.84941,28.64384 l -26.33429,92.10351 c -2.2099,7.7367 -0.0924,16.02566 5.61647,21.73607 5.70891,5.71042 13.99568,7.82844 21.73033,5.61796 l 92.07919,-26.34125 c 10.86535,-3.13152 20.71746,-8.93476 28.63627,-16.85566 L 615.59431,129.31636 c 25.87425,-25.88108 25.87425,-67.881008 0,-93.762098 L 604.45308,24.410096 C 591.51596,11.469552 574.55001,5 557.58442,5 Z m -0.0126,44.139532 c 5.65136,0 11.29265,2.165151 15.57433,6.494016 h 0.0917 l 11.14122,11.144167 c 8.65545,8.65773 8.65545,22.657824 0,31.223452 L 557.58439,124.89468 515.13624,82.435313 541.93093,55.633548 c 4.32772,-4.328865 9.98951,-6.494016 15.64087,-6.494016 z m -73.65077,64.519238 42.44815,42.45936 -123.66307,123.60399 c -2.6703,2.67101 -5.98371,4.60482 -9.5748,5.61796 l -53.86633,15.38057 15.37651,-53.88056 c 1.01287,-3.59204 2.94618,-6.90812 5.61647,-9.57912 l 0.0917,0.0935 z"
     fill="#DA2C43"
     style="display:inline;stroke-width:0.920914"
     id="path5" /><path
     d="m 177,460 c -17.69985,0 -31.99975,14.30021 -32,32 2.4e-4,17.69979 14.30015,32 32,32 1.25197,0 2.48708,-0.0717 3.70117,-0.21094 1.53604,0.13924 3.09884,0.21094 4.6836,0.21094 h 269.23046 c 1.58478,0 3.14753,-0.0717 4.6836,-0.21094 C 460.51294,523.9283 461.74801,524 463,524 c 17.69982,0 31.99972,-14.30024 32,-32 -3e-5,-17.69997 -14.30002,-32 -32,-32 -1.25199,0 -2.48706,0.0717 -3.70117,0.21094 C 457.76276,460.07169 456.20001,460 454.61523,460 H 185.38477 c -1.58476,0 -3.14756,0.0717 -4.6836,0.21094 C 179.48708,460.07171 178.25197,460 177,460 Z"
     style="display:inline;fill:#fc44f9;fill-opacity:1"
     id="path6" /></svg>
